<svg xmlns="http://www.w3.org/2000/svg" viewBox="0 0 100 100">
  <circle cx="50" cy="50" r="50" fill="#FFE066"/>
  <!-- 왕관 -->
  <polygon points="22,42 30,22 38,34 50,18 62,34 70,22 78,42" fill="#FFD700" stroke="#CC9900" stroke-width="2"/>
  <circle cx="50" cy="20" r="5" fill="#FF4466"/>
  <circle cx="30" cy="24" r="3.5" fill="#4488FF"/>
  <circle cx="70" cy="24" r="3.5" fill="#4488FF"/>
  <!-- 얼굴 -->
  <circle cx="50" cy="62" r="24" fill="#FBBF8C"/>
  <!-- 머리카락 -->
  <ellipse cx="50" cy="42" rx="20" ry="11" fill="#8B4513"/>
  <!-- 눈 -->
  <circle cx="42" cy="60" r="4.5" fill="white"/>
  <circle cx="58" cy="60" r="4.5" fill="white"/>
  <circle cx="43" cy="61" r="2.5" fill="#3a2010"/>
  <circle cx="59" cy="61" r="2.5" fill="#3a2010"/>
  <circle cx="44" cy="60" r="1" fill="white"/>
  <circle cx="60" cy="60" r="1" fill="white"/>
  <!-- 볼 -->
  <circle cx="34" cy="68" r="5" fill="#FFB0A0" opacity="0.6"/>
  <circle cx="66" cy="68" r="5" fill="#FFB0A0" opacity="0.6"/>
  <!-- 입 -->
  <path d="M42 72 Q50 80 58 72" stroke="#CC5533" stroke-width="3" fill="none" stroke-linecap="round"/>
</svg>
