<svg xmlns="http://www.w3.org/2000/svg" viewBox="0 0 80 80">
  <!-- 배경 -->
  <circle cx="40" cy="40" r="40" fill="#F0D8FF"/>
  <!-- 드레스 -->
  <ellipse cx="40" cy="70" rx="24" ry="16" fill="#9944CC"/>
  <ellipse cx="40" cy="66" rx="20" ry="12" fill="#BB66EE"/>
  <!-- 왕관 -->
  <polygon points="20,28 26,14 32,22 40,10 48,22 54,14 60,28" fill="#FFD700" stroke="#CC9900" stroke-width="1.5"/>
  <!-- 왕관 보석 -->
  <circle cx="40" cy="12" r="4" fill="#FF4466"/>
  <circle cx="26" cy="16" r="3" fill="#44AAFF"/>
  <circle cx="54" cy="16" r="3" fill="#44FF88"/>
  <!-- 머리카락 -->
  <ellipse cx="40" cy="32" rx="20" ry="14" fill="#1a0a30"/>
  <!-- 양쪽 흘러내린 머리 -->
  <ellipse cx="22" cy="50" rx="6" ry="18" fill="#1a0a30"/>
  <ellipse cx="58" cy="50" rx="6" ry="18" fill="#1a0a30"/>
  <!-- 얼굴 -->
  <ellipse cx="40" cy="45" rx="15" ry="16" fill="#F0D0B0"/>
  <!-- 귀 장식 -->
  <ellipse cx="25" cy="44" rx="3" ry="4" fill="#F0D0B0"/>
  <ellipse cx="55" cy="44" rx="3" ry="4" fill="#F0D0B0"/>
  <circle cx="23" cy="45" r="2.5" fill="#FFD700" stroke="#CC9900" stroke-width="1"/>
  <circle cx="57" cy="45" r="2.5" fill="#FFD700" stroke="#CC9900" stroke-width="1"/>
  <!-- 눈썹 -->
  <path d="M29 38 Q33 34 37 38" stroke="#1a0a30" stroke-width="2" fill="none" stroke-linecap="round"/>
  <path d="M43 38 Q47 34 51 38" stroke="#1a0a30" stroke-width="2" fill="none" stroke-linecap="round"/>
  <!-- 눈 (길고 우아) -->
  <ellipse cx="33" cy="42" rx="5" ry="4.5" fill="white"/>
  <ellipse cx="47" cy="42" rx="5" ry="4.5" fill="white"/>
  <circle cx="34" cy="43" r="3" fill="#3a1060"/>
  <circle cx="48" cy="43" r="3" fill="#3a1060"/>
  <circle cx="35" cy="42" r="1.2" fill="white"/>
  <circle cx="49" cy="42" r="1.2" fill="white"/>
  <!-- 아이라인 -->
  <path d="M28 40 Q33 38 38 40" stroke="#1a0a30" stroke-width="1" fill="none"/>
  <path d="M42 40 Q47 38 52 40" stroke="#1a0a30" stroke-width="1" fill="none"/>
  <!-- 볼터치 -->
  <ellipse cx="26" cy="47" rx="4.5" ry="3" fill="#FF88AA" opacity="0.5"/>
  <ellipse cx="54" cy="47" rx="4.5" ry="3" fill="#FF88AA" opacity="0.5"/>
  <!-- 코 -->
  <ellipse cx="40" cy="49" rx="1.8" ry="1.4" fill="#d4a080"/>
  <!-- 입 (우아한 미소) -->
  <path d="M33 54 Q40 60 47 54" stroke="#CC4466" stroke-width="2" fill="#FF88AA" stroke-linecap="round"/>
  <!-- 이름 -->
  <text x="40" y="77" text-anchor="middle" font-family="'Malgun Gothic',sans-serif" font-size="9" font-weight="bold" fill="#6a1a9a">에스더</text>
</svg>
