<svg xmlns="http://www.w3.org/2000/svg" viewBox="0 0 100 100">
  <circle cx="50" cy="50" r="50" fill="#F0D8FF"/>
  <!-- 드레스 -->
  <ellipse cx="50" cy="90" rx="32" ry="18" fill="#8833CC"/>
  <ellipse cx="50" cy="82" rx="26" ry="14" fill="#AA55EE"/>
  <!-- 왕관 -->
  <polygon points="22,38 30,18 38,30 50,14 62,30 70,18 78,38" fill="#FFD700" stroke="#CC9900" stroke-width="2"/>
  <circle cx="50" cy="16" r="5" fill="#FF3366"/>
  <circle cx="30" cy="20" r="4" fill="#44AAFF"/>
  <circle cx="70" cy="20" r="4" fill="#44FF88"/>
  <!-- 머리카락 -->
  <ellipse cx="50" cy="40" rx="26" ry="17" fill="#1a0830"/>
  <ellipse cx="28" cy="60" rx="8" ry="22" fill="#1a0830"/>
  <ellipse cx="72" cy="60" rx="8" ry="22" fill="#1a0830"/>
  <!-- 얼굴 -->
  <circle cx="50" cy="57" r="20" fill="#F0D0B0"/>
  <!-- 눈 -->
  <ellipse cx="42" cy="55" rx="5" ry="4.5" fill="white"/>
  <ellipse cx="58" cy="55" rx="5" ry="4.5" fill="white"/>
  <circle cx="43" cy="56" r="2.8" fill="#2a0850"/>
  <circle cx="59" cy="56" r="2.8" fill="#2a0850"/>
  <circle cx="44" cy="55" r="1.1" fill="white"/>
  <circle cx="60" cy="55" r="1.1" fill="white"/>
  <!-- 볼 -->
  <circle cx="35" cy="62" r="5" fill="#FF88BB" opacity="0.5"/>
  <circle cx="65" cy="62" r="5" fill="#FF88BB" opacity="0.5"/>
  <!-- 입 -->
  <path d="M43 66 Q50 73 57 66" stroke="#CC2255" stroke-width="3" fill="#FF88AA" stroke-linecap="round"/>
  <!-- 귀걸이 -->
  <circle cx="30" cy="60" r="3.5" fill="#FFD700" stroke="#CC9900" stroke-width="1.5"/>
  <circle cx="70" cy="60" r="3.5" fill="#FFD700" stroke="#CC9900" stroke-width="1.5"/>
</svg>
