<svg xmlns="http://www.w3.org/2020/svg" viewBox="0 0 100 100">
  <circle cx="50" cy="50" r="50" fill="#FFFADC"/>
  <!-- 후광 -->
  <circle cx="50" cy="44" r="30" fill="none" stroke="#FFD700" stroke-width="5" opacity="0.8"/>
  <circle cx="50" cy="44" r="35" fill="none" stroke="#FFD700" stroke-width="2" opacity="0.4"/>
  <!-- 머리카락 -->
  <ellipse cx="50" cy="34" rx="22" ry="16" fill="#8B5A2B"/>
  <ellipse cx="30" cy="56" rx="8" ry="20" fill="#8B5A2B"/>
  <ellipse cx="70" cy="56" rx="8" ry="20" fill="#8B5A2B"/>
  <!-- 얼굴 -->
  <circle cx="50" cy="52" r="20" fill="#F0C090"/>
  <!-- 수염 -->
  <ellipse cx="50" cy="68" rx="14" ry="10" fill="#8B5A2B"/>
  <!-- 눈 -->
  <circle cx="43" cy="50" r="4" fill="white"/>
  <circle cx="57" cy="50" r="4" fill="white"/>
  <circle cx="44" cy="51" r="2.2" fill="#4a2a10"/>
  <circle cx="58" cy="51" r="2.2" fill="#4a2a10"/>
  <circle cx="45" cy="50" r="0.9" fill="white"/>
  <circle cx="59" cy="50" r="0.9" fill="white"/>
  <!-- 볼 -->
  <circle cx="36" cy="56" r="4" fill="#FFBBAA" opacity="0.5"/>
  <circle cx="64" cy="56" r="4" fill="#FFBBAA" opacity="0.5"/>
  <!-- 입 -->
  <path d="M44 60 Q50 65 56 60" stroke="#CC7755" stroke-width="2.5" fill="none" stroke-linecap="round"/>
  <!-- 십자가 작은 것 -->
  <rect x="47" y="14" width="6" height="16" rx="2" fill="#FFD700" opacity="0.9"/>
  <rect x="42" y="18" width="16" height="5" rx="2" fill="#FFD700" opacity="0.9"/>
</svg>
