<svg xmlns="http://www.w3.org/2000/svg" viewBox="0 0 80 80">
  <!-- 배경 -->
  <circle cx="40" cy="40" r="40" fill="#FFF8DC"/>
  <!-- 후광 -->
  <circle cx="40" cy="32" r="24" fill="none" stroke="#FFD700" stroke-width="4" opacity="0.7"/>
  <circle cx="40" cy="32" r="27" fill="none" stroke="#FFD700" stroke-width="1.5" opacity="0.4"/>
  <!-- 십자가 후광 선 -->
  <line x1="40" y1="6" x2="40" y2="58" stroke="#FFD700" stroke-width="1.5" opacity="0.3"/>
  <line x1="14" y1="32" x2="66" y2="32" stroke="#FFD700" stroke-width="1.5" opacity="0.3"/>
  <!-- 머리카락 -->
  <ellipse cx="40" cy="28" rx="18" ry="16" fill="#8B5A2B"/>
  <!-- 긴 머리 양쪽 -->
  <ellipse cx="24" cy="44" rx="6" ry="18" fill="#8B5A2B"/>
  <ellipse cx="56" cy="44" rx="6" ry="18" fill="#8B5A2B"/>
  <!-- 얼굴 -->
  <ellipse cx="40" cy="40" rx="15" ry="17" fill="#F0C8A0"/>
  <!-- 눈썹 -->
  <path d="M30 35 Q34 32 38 35" stroke="#8B5A2B" stroke-width="1.8" fill="none" stroke-linecap="round"/>
  <path d="M42 35 Q46 32 50 35" stroke="#8B5A2B" stroke-width="1.8" fill="none" stroke-linecap="round"/>
  <!-- 눈 -->
  <ellipse cx="34" cy="39" rx="4" ry="4.5" fill="white"/>
  <ellipse cx="46" cy="39" rx="4" ry="4.5" fill="white"/>
  <circle cx="35" cy="40" r="3" fill="#5A3010"/>
  <circle cx="47" cy="40" r="3" fill="#5A3010"/>
  <circle cx="36" cy="39" r="1.2" fill="white"/>
  <circle cx="48" cy="39" r="1.2" fill="white"/>
  <!-- 볼 -->
  <ellipse cx="26" cy="44" rx="4" ry="3" fill="#FFBBAA" opacity="0.5"/>
  <ellipse cx="54" cy="44" rx="4" ry="3" fill="#FFBBAA" opacity="0.5"/>
  <!-- 코 -->
  <ellipse cx="40" cy="46" rx="2" ry="1.5" fill="#c8886a"/>
  <!-- 수염 -->
  <path d="M29 50 Q34 60 40 62 Q46 60 51 50" fill="#8B5A2B"/>
  <!-- 입 -->
  <path d="M34 50 Q40 55 46 50" stroke="#CC7755" stroke-width="1.5" fill="none" stroke-linecap="round"/>
  <!-- 이름 -->
  <text x="40" y="77" text-anchor="middle" font-family="'Malgun Gothic',sans-serif" font-size="9" font-weight="bold" fill="#7a5000">예수님</text>
</svg>
