<svg xmlns="http://www.w3.org/2000/svg" viewBox="0 0 100 100">
  <circle cx="50" cy="50" r="50" fill="#88CCFF"/>
  <!-- 물결 -->
  <path d="M0 72 Q25 62 50 72 Q75 82 100 72 L100 100 L0 100Z" fill="#2266AA" opacity="0.5"/>
  <path d="M0 80 Q25 70 50 80 Q75 90 100 80 L100 100 L0 100Z" fill="#1144AA" opacity="0.6"/>
  <!-- 큰 물고기 -->
  <ellipse cx="22" cy="75" rx="18" ry="11" fill="#3366CC"/>
  <polygon points="4,68 0,75 4,82" fill="#2255BB"/>
  <circle cx="28" cy="72" r="3" fill="white"/>
  <circle cx="28.5" cy="72" r="1.5" fill="#1a3a6a"/>
  <path d="M16 72 Q22 68 28 72" stroke="#5588EE" stroke-width="2" fill="none"/>
  <!-- 머리 -->
  <ellipse cx="50" cy="34" rx="20" ry="14" fill="#7B4A1F"/>
  <!-- 삐죽 머리 (놀람) -->
  <polygon points="35,24 31,10 39,22" fill="#7B4A1F"/>
  <polygon points="50,22 50,8 53,22" fill="#7B4A1F"/>
  <polygon points="65,24 69,10 61,22" fill="#7B4A1F"/>
  <!-- 얼굴 -->
  <circle cx="50" cy="54" r="22" fill="#F5C590"/>
  <!-- 눈썹 (놀람 - 위로 올라감) -->
  <path d="M36 44 Q42 36 47 42" stroke="#7B4A1F" stroke-width="3" fill="none" stroke-linecap="round"/>
  <path d="M53 42 Q58 36 64 44" stroke="#7B4A1F" stroke-width="3" fill="none" stroke-linecap="round"/>
  <!-- 눈 (크게 뜸) -->
  <circle cx="42" cy="51" r="6.5" fill="white"/>
  <circle cx="58" cy="51" r="6.5" fill="white"/>
  <circle cx="43" cy="52" r="4" fill="#3a2010"/>
  <circle cx="59" cy="52" r="4" fill="#3a2010"/>
  <circle cx="44.5" cy="51" r="1.6" fill="white"/>
  <circle cx="60.5" cy="51" r="1.6" fill="white"/>
  <!-- 볼 -->
  <circle cx="33" cy="60" r="5" fill="#FFAAAA" opacity="0.5"/>
  <circle cx="67" cy="60" r="5" fill="#FFAAAA" opacity="0.5"/>
  <!-- 입 (O - 놀람) -->
  <ellipse cx="50" cy="65" rx="6" ry="7" fill="#CC4422" stroke="#8B1A00" stroke-width="2"/>
  <ellipse cx="50" cy="65" rx="4" ry="5" fill="#1a0000"/>
  <!-- 땀 -->
  <ellipse cx="72" cy="38" rx="3" ry="5" fill="#88CCFF"/>
  <circle cx="72" cy="34" r="2.5" fill="#88CCFF"/>
</svg>
