<svg xmlns="http://www.w3.org/2000/svg" viewBox="0 0 80 80">
  <!-- 배경 (바다색) -->
  <circle cx="40" cy="40" r="40" fill="#A8E4FF"/>
  <!-- 물고기 -->
  <ellipse cx="18" cy="60" rx="14" ry="9" fill="#4488CC"/>
  <polygon points="4,54 2,60 4,66" fill="#3366AA"/>
  <circle cx="24" cy="57" r="2" fill="white"/>
  <circle cx="24.5" cy="57" r="1" fill="#1a3a6a"/>
  <!-- 물결 -->
  <path d="M2 52 Q15 46 28 52 Q41 58 54 52 Q67 46 78 52" stroke="#66BBFF" stroke-width="2" fill="none" opacity="0.6"/>
  <path d="M2 58 Q15 52 28 58 Q41 64 54 58 Q67 52 78 58" stroke="#66BBFF" stroke-width="2" fill="none" opacity="0.4"/>
  <!-- 머리카락 -->
  <ellipse cx="40" cy="24" rx="16" ry="12" fill="#6B3A1F"/>
  <!-- 머리카락 뒤쪽 삐죽 (놀란 모양) -->
  <path d="M34 14 L32 5 L37 13" fill="#6B3A1F"/>
  <path d="M40 12 L40 3 L43 12" fill="#6B3A1F"/>
  <path d="M46 14 L48 5 L44 13" fill="#6B3A1F"/>
  <!-- 얼굴 -->
  <ellipse cx="40" cy="38" rx="15" ry="17" fill="#F5C590"/>
  <!-- 귀 -->
  <ellipse cx="25" cy="38" rx="4" ry="5" fill="#F5C590"/>
  <ellipse cx="55" cy="38" rx="4" ry="5" fill="#F5C590"/>
  <!-- 눈썹 (놀란 모양 - 올라감) -->
  <path d="M28 28 Q32 22 36 26" stroke="#6B3A1F" stroke-width="2.5" fill="none" stroke-linecap="round"/>
  <path d="M44 26 Q48 22 52 28" stroke="#6B3A1F" stroke-width="2.5" fill="none" stroke-linecap="round"/>
  <!-- 눈 (크게 뜸 - 놀람) -->
  <ellipse cx="33" cy="33" rx="5.5" ry="6" fill="white"/>
  <ellipse cx="47" cy="33" rx="5.5" ry="6" fill="white"/>
  <circle cx="34" cy="34" r="3.5" fill="#3a2010"/>
  <circle cx="48" cy="34" r="3.5" fill="#3a2010"/>
  <circle cx="35" cy="33" r="1.5" fill="white"/>
  <circle cx="49" cy="33" r="1.5" fill="white"/>
  <!-- 볼터치 -->
  <ellipse cx="25" cy="41" rx="4.5" ry="3" fill="#FFAAAA" opacity="0.5"/>
  <ellipse cx="55" cy="41" rx="4.5" ry="3" fill="#FFAAAA" opacity="0.5"/>
  <!-- 코 -->
  <ellipse cx="40" cy="42" rx="2.5" ry="2" fill="#d09060"/>
  <!-- 입 (O모양 - 놀람) -->
  <ellipse cx="40" cy="50" rx="5" ry="6" fill="#CC5533" stroke="#8B2200" stroke-width="1.5"/>
  <ellipse cx="40" cy="50" rx="3.5" ry="4.5" fill="#1a0000"/>
  <!-- 땀방울 -->
  <path d="M58 22 Q60 18 62 22 Q62 26 60 27 Q58 26 58 22" fill="#88CCFF"/>
  <!-- 이름 -->
  <text x="40" y="77" text-anchor="middle" font-family="'Malgun Gothic',sans-serif" font-size="9" font-weight="bold" fill="#1a3a6a">요 나</text>
</svg>
