<svg xmlns="http://www.w3.org/2000/svg" viewBox="0 0 100 100">
  <circle cx="50" cy="50" r="50" fill="#FFF0D0"/>
  <!-- 형형색색 옷 줄무늬 -->
  <ellipse cx="50" cy="88" rx="30" ry="18" fill="#FF6644"/>
  <ellipse cx="50" cy="84" rx="28" ry="15" fill="#FF6644"/>
  <rect x="22" y="78" width="56" height="6" rx="3" fill="#FFD700"/>
  <rect x="22" y="84" width="56" height="5" rx="2.5" fill="#44AAFF"/>
  <rect x="22" y="73" width="56" height="5" rx="2.5" fill="#AA44FF"/>
  <!-- 머리카락 -->
  <ellipse cx="50" cy="34" rx="22" ry="15" fill="#5A3010"/>
  <!-- 얼굴 -->
  <circle cx="50" cy="53" r="22" fill="#F0C080"/>
  <!-- 눈썹 -->
  <path d="M37 46 Q42 42 47 46" stroke="#5A3010" stroke-width="2.5" fill="none" stroke-linecap="round"/>
  <path d="M53 46 Q58 42 63 46" stroke="#5A3010" stroke-width="2.5" fill="none" stroke-linecap="round"/>
  <!-- 눈 -->
  <circle cx="42" cy="52" r="5" fill="white"/>
  <circle cx="58" cy="52" r="5" fill="white"/>
  <circle cx="43" cy="53" r="3" fill="#5A3010"/>
  <circle cx="59" cy="53" r="3" fill="#5A3010"/>
  <circle cx="44" cy="52" r="1.2" fill="white"/>
  <circle cx="60" cy="52" r="1.2" fill="white"/>
  <!-- 볼 -->
  <circle cx="34" cy="60" r="5.5" fill="#FFAAAA" opacity="0.5"/>
  <circle cx="66" cy="60" r="5.5" fill="#FFAAAA" opacity="0.5"/>
  <!-- 입 (환한 미소) -->
  <path d="M40 63 Q50 73 60 63" stroke="#CC5522" stroke-width="3" fill="#FF9977" stroke-linecap="round"/>
  <path d="M42 64 Q50 71 58 64" fill="white"/>
  <!-- 꿈 별 -->
  <text x="78" y="28" font-size="16" fill="#FFD700">★</text>
  <text x="12" y="26" font-size="12" fill="#FFD700">☆</text>
</svg>
