<svg xmlns="http://www.w3.org/2000/svg" viewBox="0 0 80 80">
  <!-- 배경 -->
  <circle cx="40" cy="40" r="40" fill="#FFF0D8"/>
  <!-- 형형색색 옷 (아래) -->
  <ellipse cx="40" cy="68" rx="22" ry="14" fill="#FF6644"/>
  <!-- 옷 줄무늬 -->
  <path d="M18 65 Q40 60 62 65 Q40 68 18 65" fill="#FFD700" opacity="0.8"/>
  <path d="M20 70 Q40 64 60 70" fill="#44AAFF" opacity="0.8"/>
  <path d="M19 67 Q40 62 61 67" fill="#AA44FF" opacity="0.6"/>
  <!-- 머리카락 -->
  <ellipse cx="40" cy="28" rx="18" ry="14" fill="#5A3010"/>
  <!-- 얼굴 -->
  <ellipse cx="40" cy="43" rx="16" ry="18" fill="#F0C090"/>
  <!-- 귀 -->
  <ellipse cx="24" cy="43" rx="4" ry="5" fill="#F0C090"/>
  <ellipse cx="56" cy="43" rx="4" ry="5" fill="#F0C090"/>
  <!-- 눈썹 -->
  <path d="M28 36 Q33 32 38 36" stroke="#5A3010" stroke-width="2" fill="none" stroke-linecap="round"/>
  <path d="M42 36 Q47 32 52 36" stroke="#5A3010" stroke-width="2" fill="none" stroke-linecap="round"/>
  <!-- 눈 -->
  <ellipse cx="33" cy="40" rx="4.5" ry="5" fill="white"/>
  <ellipse cx="47" cy="40" rx="4.5" ry="5" fill="white"/>
  <circle cx="34" cy="41" r="3" fill="#5A3010"/>
  <circle cx="48" cy="41" r="3" fill="#5A3010"/>
  <circle cx="35" cy="40" r="1.2" fill="white"/>
  <circle cx="49" cy="40" r="1.2" fill="white"/>
  <!-- 볼터치 -->
  <ellipse cx="25" cy="47" rx="5" ry="3" fill="#FFAAAA" opacity="0.5"/>
  <ellipse cx="55" cy="47" rx="5" ry="3" fill="#FFAAAA" opacity="0.5"/>
  <!-- 코 -->
  <ellipse cx="40" cy="47" rx="2" ry="1.8" fill="#d09060"/>
  <!-- 입 (환하게 웃음) -->
  <path d="M31 53 Q40 62 49 53" stroke="#AA5533" stroke-width="2" fill="#FF9977" stroke-linecap="round"/>
  <path d="M33 54 Q40 60 47 54" fill="white"/>
  <!-- 별 꿈 장식 -->
  <text x="12" y="22" font-size="12" fill="#FFD700" opacity="0.8">★</text>
  <text x="62" y="18" font-size="10" fill="#FFD700" opacity="0.7">☆</text>
  <!-- 이름 -->
  <text x="40" y="77" text-anchor="middle" font-family="'Malgun Gothic',sans-serif" font-size="9" font-weight="bold" fill="#7a3a00">요 셉</text>
</svg>
