<svg xmlns="http://www.w3.org/2000/svg" viewBox="0 0 100 100">
  <circle cx="50" cy="50" r="50" fill="#D0E8FF"/>
  <!-- 파란 두건 -->
  <ellipse cx="50" cy="50" rx="34" ry="40" fill="#2266CC"/>
  <ellipse cx="50" cy="46" rx="28" ry="34" fill="#3388EE"/>
  <!-- 흰 내부 -->
  <ellipse cx="50" cy="42" rx="20" ry="22" fill="#EEF6FF"/>
  <!-- 얼굴 -->
  <circle cx="50" cy="52" r="18" fill="#F5D0B0"/>
  <!-- 눈 -->
  <ellipse cx="43" cy="50" rx="4.5" ry="4" fill="white"/>
  <ellipse cx="57" cy="50" rx="4.5" ry="4" fill="white"/>
  <circle cx="44" cy="51" r="2.5" fill="#2a1a30"/>
  <circle cx="58" cy="51" r="2.5" fill="#2a1a30"/>
  <circle cx="45" cy="50" r="1" fill="white"/>
  <circle cx="59" cy="50" r="1" fill="white"/>
  <!-- 볼 -->
  <circle cx="36" cy="56" r="4.5" fill="#FFAABB" opacity="0.45"/>
  <circle cx="64" cy="56" r="4.5" fill="#FFAABB" opacity="0.45"/>
  <!-- 코 -->
  <ellipse cx="50" cy="56" rx="2" ry="1.5" fill="#d4a080"/>
  <!-- 입 -->
  <path d="M44 61 Q50 67 56 61" stroke="#CC6688" stroke-width="2.5" fill="#FFAACC" stroke-linecap="round"/>
  <!-- 별 장식 -->
  <circle cx="50" cy="25" r="4" fill="#FFD700"/>
  <polygon points="50,20 51.5,24 56,24 52.5,27 53.8,31 50,28.5 46.2,31 47.5,27 44,24 48.5,24" fill="#FFD700"/>
</svg>
