<svg xmlns="http://www.w3.org/2000/svg" viewBox="0 0 80 80">
  <!-- 배경 -->
  <circle cx="40" cy="40" r="40" fill="#D8EEFF"/>
  <!-- 파란 두건 외곽 -->
  <ellipse cx="40" cy="36" rx="26" ry="28" fill="#4A90D9"/>
  <!-- 파란 두건 내부 -->
  <ellipse cx="40" cy="34" rx="22" ry="24" fill="#5BA8F0"/>
  <!-- 흰 내부 두건 -->
  <ellipse cx="40" cy="32" rx="16" ry="18" fill="#EEF8FF"/>
  <!-- 얼굴 -->
  <ellipse cx="40" cy="40" rx="14" ry="16" fill="#F5D0B0"/>
  <!-- 귀 -->
  <ellipse cx="26" cy="40" rx="3" ry="4" fill="#F5D0B0"/>
  <ellipse cx="54" cy="40" rx="3" ry="4" fill="#F5D0B0"/>
  <!-- 눈썹 -->
  <path d="M31 34 Q35 31 39 34" stroke="#8B5A2B" stroke-width="1.5" fill="none" stroke-linecap="round"/>
  <path d="M41 34 Q45 31 49 34" stroke="#8B5A2B" stroke-width="1.5" fill="none" stroke-linecap="round"/>
  <!-- 눈 (길고 우아하게) -->
  <ellipse cx="34" cy="38" rx="4.5" ry="4" fill="white"/>
  <ellipse cx="46" cy="38" rx="4.5" ry="4" fill="white"/>
  <circle cx="35" cy="39" r="2.5" fill="#3a2010"/>
  <circle cx="47" cy="39" r="2.5" fill="#3a2010"/>
  <circle cx="36" cy="38" r="1" fill="white"/>
  <circle cx="48" cy="38" r="1" fill="white"/>
  <!-- 속눈썹 -->
  <path d="M30 35 Q31 33 32 35" stroke="#3a2010" stroke-width="1" fill="none"/>
  <path d="M38 35 Q39 33 40 35" stroke="#3a2010" stroke-width="1" fill="none"/>
  <path d="M42 35 Q43 33 44 35" stroke="#3a2010" stroke-width="1" fill="none"/>
  <path d="M50 35 Q51 33 52 35" stroke="#3a2010" stroke-width="1" fill="none"/>
  <!-- 볼터치 -->
  <ellipse cx="27" cy="43" rx="4" ry="3" fill="#FFAABB" opacity="0.4"/>
  <ellipse cx="53" cy="43" rx="4" ry="3" fill="#FFAABB" opacity="0.4"/>
  <!-- 코 -->
  <ellipse cx="40" cy="44" rx="1.8" ry="1.4" fill="#d4a080"/>
  <!-- 입 (우아한 미소) -->
  <path d="M34 49 Q40 54 46 49" stroke="#CC7766" stroke-width="2" fill="#FFBBAA" stroke-linecap="round"/>
  <!-- 별 장식 -->
  <text x="40" y="20" text-anchor="middle" font-size="10" fill="#FFD700">✦</text>
  <!-- 이름 -->
  <text x="40" y="77" text-anchor="middle" font-family="'Malgun Gothic',sans-serif" font-size="9" font-weight="bold" fill="#1a4a8a">마리아</text>
</svg>
