<svg xmlns="http://www.w3.org/2000/svg" viewBox="0 0 100 100">
  <circle cx="50" cy="50" r="50" fill="#A8D8A8"/>
  <!-- 두건 -->
  <ellipse cx="50" cy="38" rx="26" ry="20" fill="#D4C8A0"/>
  <ellipse cx="50" cy="30" rx="22" ry="13" fill="#B8A870"/>
  <!-- 얼굴 -->
  <circle cx="50" cy="55" r="22" fill="#C8905A"/>
  <!-- 흰 수염 (크게) -->
  <ellipse cx="50" cy="74" rx="18" ry="14" fill="white"/>
  <path d="M33 62 Q50 85 67 62" fill="white"/>
  <!-- 콧수염 -->
  <ellipse cx="50" cy="62" rx="10" ry="4" fill="white"/>
  <!-- 눈 -->
  <circle cx="42" cy="52" r="4.5" fill="white"/>
  <circle cx="58" cy="52" r="4.5" fill="white"/>
  <circle cx="43" cy="53" r="2.5" fill="#2a4a7a"/>
  <circle cx="59" cy="53" r="2.5" fill="#2a4a7a"/>
  <circle cx="44" cy="52" r="1" fill="white"/>
  <circle cx="60" cy="52" r="1" fill="white"/>
  <!-- 눈썹 흰색 -->
  <path d="M37 47 Q42 43 47 47" stroke="white" stroke-width="3" fill="none" stroke-linecap="round"/>
  <path d="M53 47 Q58 43 63 47" stroke="white" stroke-width="3" fill="none" stroke-linecap="round"/>
  <!-- 지팡이 -->
  <rect x="76" y="20" width="5" height="62" rx="2.5" fill="#8B6914"/>
</svg>
