<svg xmlns="http://www.w3.org/2000/svg" viewBox="0 0 80 80">
  <!-- 배경 -->
  <circle cx="40" cy="40" r="40" fill="#D4EAB8"/>
  <!-- 지팡이 -->
  <rect x="62" y="15" width="4" height="52" rx="2" fill="#8B6914"/>
  <!-- 머리 두건 -->
  <ellipse cx="40" cy="27" rx="20" ry="16" fill="#E8E0C8"/>
  <ellipse cx="40" cy="20" rx="18" ry="10" fill="#C8BFA8"/>
  <!-- 얼굴 -->
  <ellipse cx="40" cy="42" rx="16" ry="18" fill="#D4A07A"/>
  <!-- 귀 -->
  <ellipse cx="24" cy="42" rx="4" ry="5" fill="#D4A07A"/>
  <ellipse cx="56" cy="42" rx="4" ry="5" fill="#D4A07A"/>
  <!-- 흰 수염 -->
  <ellipse cx="40" cy="56" rx="14" ry="12" fill="white" stroke="#DDD" stroke-width="1"/>
  <path d="M28 52 Q34 68 40 70 Q46 68 52 52" fill="white"/>
  <!-- 콧수염 -->
  <path d="M32 49 Q40 52 48 49" fill="white" stroke="white" stroke-width="3" stroke-linecap="round"/>
  <!-- 눈썹 (흰색) -->
  <path d="M30 36 Q34 32 38 36" stroke="white" stroke-width="2.5" fill="none" stroke-linecap="round"/>
  <path d="M42 36 Q46 32 50 36" stroke="white" stroke-width="2.5" fill="none" stroke-linecap="round"/>
  <!-- 눈 -->
  <ellipse cx="34" cy="40" rx="4" ry="4" fill="white"/>
  <ellipse cx="46" cy="40" rx="4" ry="4" fill="white"/>
  <circle cx="35" cy="41" r="2.5" fill="#2a4a7a"/>
  <circle cx="47" cy="41" r="2.5" fill="#2a4a7a"/>
  <circle cx="36" cy="40" r="1" fill="white"/>
  <circle cx="48" cy="40" r="1" fill="white"/>
  <!-- 코 -->
  <ellipse cx="40" cy="46" rx="2.5" ry="2" fill="#b87a50"/>
  <!-- 석판 아이콘 -->
  <rect x="6" y="28" width="14" height="18" rx="2" fill="#C8C0B0" stroke="#A09070" stroke-width="1.5"/>
  <text x="13" y="38" text-anchor="middle" font-size="7" fill="#666">十</text>
  <!-- 이름 -->
  <text x="40" y="77" text-anchor="middle" font-family="'Malgun Gothic',sans-serif" font-size="9" font-weight="bold" fill="#3a5a10">모 세</text>
</svg>
