<svg xmlns="http://www.w3.org/2000/svg" viewBox="0 0 80 80">
  <!-- 배경 (하늘+무지개) -->
  <circle cx="40" cy="40" r="40" fill="#C8F0FF"/>
  <!-- 무지개 -->
  <path d="M8 55 Q40 10 72 55" stroke="#FF4444" stroke-width="3" fill="none" opacity="0.7"/>
  <path d="M11 57 Q40 16 69 57" stroke="#FF9900" stroke-width="3" fill="none" opacity="0.7"/>
  <path d="M14 59 Q40 22 66 59" stroke="#FFEE00" stroke-width="3" fill="none" opacity="0.7"/>
  <path d="M17 61 Q40 28 63 61" stroke="#44CC44" stroke-width="2.5" fill="none" opacity="0.7"/>
  <path d="M20 62 Q40 33 60 62" stroke="#4488FF" stroke-width="2.5" fill="none" opacity="0.7"/>
  <!-- 방주 -->
  <rect x="5" y="58" width="30" height="12" rx="3" fill="#8B6914" stroke="#6B4A00" stroke-width="1.5"/>
  <path d="M5 62 Q20 55 35 62" fill="#A07820" stroke="#6B4A00" stroke-width="1"/>
  <!-- 비둘기 -->
  <ellipse cx="52" cy="25" rx="6" ry="4" fill="white"/>
  <path d="M48 23 Q52 18 56 23" fill="white"/>
  <circle cx="54" cy="23" r="1.5" fill="#FFAA00"/>
  <!-- 머리 두건 -->
  <ellipse cx="40" cy="35" rx="18" ry="13" fill="#D4AA60"/>
  <ellipse cx="40" cy="29" rx="15" ry="9" fill="#B89040"/>
  <!-- 얼굴 -->
  <ellipse cx="40" cy="44" rx="14" ry="15" fill="#C89060"/>
  <!-- 귀 -->
  <ellipse cx="26" cy="44" rx="3.5" ry="4.5" fill="#C89060"/>
  <ellipse cx="54" cy="44" rx="3.5" ry="4.5" fill="#C89060"/>
  <!-- 흰 수염 -->
  <path d="M28 52 Q34 66 40 68 Q46 66 52 52 Q46 56 40 57 Q34 56 28 52" fill="white"/>
  <!-- 콧수염 -->
  <path d="M32 48 Q36 52 40 50 Q44 52 48 48" fill="white" stroke="white" stroke-width="2"/>
  <!-- 눈썹 흰색 -->
  <path d="M30 37 Q34 33 38 37" stroke="white" stroke-width="2.5" fill="none" stroke-linecap="round"/>
  <path d="M42 37 Q46 33 50 37" stroke="white" stroke-width="2.5" fill="none" stroke-linecap="round"/>
  <!-- 눈 -->
  <ellipse cx="34" cy="41" rx="3.5" ry="3.5" fill="white"/>
  <ellipse cx="46" cy="41" rx="3.5" ry="3.5" fill="white"/>
  <circle cx="35" cy="42" r="2.2" fill="#2a4a6a"/>
  <circle cx="47" cy="42" r="2.2" fill="#2a4a6a"/>
  <circle cx="36" cy="41" r="0.9" fill="white"/>
  <circle cx="48" cy="41" r="0.9" fill="white"/>
  <!-- 볼터치 -->
  <ellipse cx="27" cy="46" rx="4" ry="3" fill="#FFAAAA" opacity="0.4"/>
  <ellipse cx="53" cy="46" rx="4" ry="3" fill="#FFAAAA" opacity="0.4"/>
  <!-- 이름 -->
  <text x="40" y="77" text-anchor="middle" font-family="'Malgun Gothic',sans-serif" font-size="9" font-weight="bold" fill="#1a5a7a">노 아</text>
</svg>
