<svg xmlns="http://www.w3.org/2000/svg" viewBox="0 0 100 100">
  <circle cx="50" cy="50" r="50" fill="#C0EEF0"/>
  <!-- 무지개 -->
  <path d="M10 70 Q50 15 90 70" stroke="#FF4444" stroke-width="4" fill="none"/>
  <path d="M14 72 Q50 22 86 72" stroke="#FF9900" stroke-width="4" fill="none"/>
  <path d="M18 74 Q50 29 82 74" stroke="#FFEE00" stroke-width="3" fill="none"/>
  <path d="M22 76 Q50 36 78 76" stroke="#44BB44" stroke-width="3" fill="none"/>
  <path d="M26 78 Q50 43 74 78" stroke="#4488FF" stroke-width="3" fill="none"/>
  <!-- 두건 -->
  <ellipse cx="50" cy="38" rx="24" ry="17" fill="#C8A060"/>
  <ellipse cx="50" cy="30" rx="20" ry="12" fill="#A07840"/>
  <!-- 얼굴 -->
  <circle cx="50" cy="57" r="21" fill="#B87040"/>
  <!-- 큰 흰 수염 -->
  <ellipse cx="50" cy="74" rx="17" ry="14" fill="white"/>
  <path d="M34 64 Q50 88 66 64" fill="white"/>
  <!-- 콧수염 -->
  <ellipse cx="50" cy="64" rx="10" ry="3.5" fill="white"/>
  <!-- 눈 -->
  <circle cx="42" cy="54" r="4" fill="white"/>
  <circle cx="58" cy="54" r="4" fill="white"/>
  <circle cx="43" cy="55" r="2.2" fill="#1a3a5a"/>
  <circle cx="59" cy="55" r="2.2" fill="#1a3a5a"/>
  <circle cx="44" cy="54" r="0.9" fill="white"/>
  <circle cx="60" cy="54" r="0.9" fill="white"/>
  <!-- 방주 아이콘 -->
  <rect x="10" y="78" width="22" height="12" rx="3" fill="#8B6914"/>
  <path d="M10 80 Q21 73 32 80" fill="#A07820"/>
</svg>
